<svg width="17" height="11" viewBox="0 0 17 11" fill="none" xmlns="http://www.w3.org/2000/svg">
  <path fill-rule="evenodd" clip-rule="evenodd"
    d="M10.904 10.688a8.972 8.972 0 0 1-2.4.312 8.856 8.856 0 0 1-2.384-.312 9.909 9.909 0 0 1-2.069-.825 10.54 10.54 0 0 1-1.696-1.13 10.071 10.071 0 0 1-1.274-1.237A6.51 6.51 0 0 1 .277 6.35C.092 6 0 5.715 0 5.497 0 5.283.092 5 .277 4.65a6.51 6.51 0 0 1 .804-1.146 9.972 9.972 0 0 1 1.277-1.237c.501-.412 1.067-.787 1.7-1.127C4.69.8 5.378.525 6.123.315A8.74 8.74 0 0 1 8.503 0c.85 0 1.65.105 2.398.315a10.276 10.276 0 0 1 3.765 1.952 9.82 9.82 0 0 1 1.266 1.237c.347.413.611.795.794 1.146.183.35.274.633.274.847 0 .218-.091.503-.274.853a6.52 6.52 0 0 1-.794 1.146 9.821 9.821 0 0 1-1.266 1.237c-.496.412-1.06.788-1.69 1.13-.63.343-1.32.617-2.072.825zM6.668 9.353a7.008 7.008 0 0 0 1.835.237 6.96 6.96 0 0 0 1.823-.237 8.235 8.235 0 0 0 1.631-.626 9.428 9.428 0 0 0 2.43-1.782c.293-.306.518-.588.677-.844.158-.256.237-.457.237-.604 0-.118-.08-.3-.237-.545a5.839 5.839 0 0 0-.678-.83 9.095 9.095 0 0 0-1.056-.936 9.864 9.864 0 0 0-1.373-.875 8.156 8.156 0 0 0-1.631-.649 6.708 6.708 0 0 0-1.823-.245c-.64 0-1.252.082-1.835.245a8.156 8.156 0 0 0-1.631.649A9.707 9.707 0 0 0 2.61 4.12a5.562 5.562 0 0 0-.678.831c-.156.246-.234.427-.234.545 0 .147.078.348.234.604.156.256.382.538.678.844.295.306.647.615 1.056.926.408.31.865.596 1.37.856.504.26 1.048.469 1.631.626zm1.835-.588c.443 0 .858-.086 1.244-.258a3.28 3.28 0 0 0 1.952-3.01c0-.45-.082-.872-.247-1.269a3.194 3.194 0 0 0-.686-1.039 3.244 3.244 0 0 0-1.02-.696 3.083 3.083 0 0 0-1.243-.251 3.133 3.133 0 0 0-2.272.944 3.264 3.264 0 0 0-.93 2.31c0 .446.083.866.25 1.26.166.395.395.742.686 1.042.292.3.63.536 1.016.709.386.172.803.258 1.25.258zm-.717-2.54a.948.948 0 0 0 .71.304c.28 0 .518-.101.715-.305a1.01 1.01 0 0 0 .296-.727.989.989 0 0 0-.296-.721.967.967 0 0 0-.714-.3c-.28 0-.516.1-.711.3a.994.994 0 0 0-.293.72c0 .282.098.525.293.728z"
    fill="#9C9C9D" />
</svg>