<svg width="17" height="12" viewBox="0 0 17 12" fill="none" xmlns="http://www.w3.org/2000/svg">
  <path fill-rule="evenodd" clip-rule="evenodd"
    d="M13.768 12a.49.49 0 0 1-.358-.157L2.845.891a.508.508 0 0 1-.142-.367.53.53 0 0 1 .142-.374.467.467 0 0 1 .357-.15.5.5 0 0 1 .357.15l10.56 10.952a.514.514 0 0 1 .153.367.536.536 0 0 1-.154.374.44.44 0 0 1-.35.157zm-5.265-.316a9.07 9.07 0 0 0 1.62-.141 9.452 9.452 0 0 0 1.477-.39l-1.145-1.188a9.071 9.071 0 0 1-.948.207 6.91 6.91 0 0 1-2.838-.16 8.16 8.16 0 0 1-1.632-.635 9.262 9.262 0 0 1-1.37-.87A9.26 9.26 0 0 1 2.61 7.57a5.085 5.085 0 0 1-.678-.857c-.156-.26-.234-.464-.234-.613 0-.102.059-.252.176-.45.117-.199.284-.425.502-.681a8.63 8.63 0 0 1 1.847-1.597L3.146 2.259c-.496.332-.94.682-1.33 1.05-.39.37-.719.731-.988 1.087a5.842 5.842 0 0 0-.616.978C.071 5.67 0 5.912 0 6.099c0 .221.092.51.277.866.185.355.453.743.804 1.163a10.532 10.532 0 0 0 2.97 2.403 9.82 9.82 0 0 0 2.07.836c.746.211 1.54.316 2.382.316zm0-2.269c.205 0 .405-.023.6-.07.195-.047.381-.11.558-.192L5.554 4.885a3.006 3.006 0 0 0-.253 1.22 3.355 3.355 0 0 0 .93 2.329c.292.305.631.545 1.02.72.387.174.805.261 1.252.261zM11.49 7.18a2.891 2.891 0 0 0 .21-1.08 3.333 3.333 0 0 0-.936-2.345 3.175 3.175 0 0 0-1.02-.71 3.05 3.05 0 0 0-1.782-.2A2.64 2.64 0 0 0 7.456 3l4.033 4.179zM6.955.655A8.622 8.622 0 0 1 8.503.521c.85 0 1.65.106 2.401.32a9.947 9.947 0 0 1 2.072.836 10.321 10.321 0 0 1 2.956 2.4c.347.42.611.807.794 1.163.183.355.274.642.274.859 0 .187-.068.428-.203.722a5.496 5.496 0 0 1-.594.965c-.261.35-.58.706-.955 1.07-.375.364-.801.713-1.277 1.045l-1.06-1.106c.366-.247.696-.502.992-.766.295-.264.547-.52.754-.767.207-.247.367-.472.477-.674.111-.203.167-.365.167-.489 0-.12-.08-.304-.237-.553a5.91 5.91 0 0 0-.678-.843 9.606 9.606 0 0 0-2.426-1.837 8.162 8.162 0 0 0-1.634-.658 6.617 6.617 0 0 0-1.823-.25c-.324 0-.636.023-.936.068-.3.044-.593.107-.88.188L5.535 1.026a9.607 9.607 0 0 1 1.42-.371z"
    fill="#9C9C9D" />
</svg>